# This file uses centimeters as units for non-parametric coordinates.

mtllib spear_tex.mtl
g default
v 0.250000 8.000000 0.000000
v 0.216506 8.000000 -0.125000
v 0.125000 8.000000 -0.216506
v -0.000000 8.000000 -0.250000
v -0.125000 8.000000 -0.216506
v -0.216506 8.000000 -0.125000
v -0.250000 8.000000 0.000000
v -0.216506 8.000000 0.125000
v -0.125000 8.000000 0.216506
v 0.000000 8.000000 0.250000
v 0.125000 8.000000 0.216506
v 0.216506 8.000000 0.125000
v 0.250000 6.000000 0.000000
v 0.216506 6.000000 -0.125000
v 0.125000 6.000000 -0.216506
v -0.000000 6.000000 -0.250000
v -0.125000 6.000000 -0.216506
v -0.216506 6.000000 -0.125000
v -0.250000 6.000000 0.000000
v -0.216506 6.000000 0.125000
v -0.125000 6.000000 0.216506
v 0.000000 6.000000 0.250000
v 0.125000 6.000000 0.216506
v 0.216506 6.000000 0.125000
v 0.250000 15.000000 0.000000
v 0.216506 15.000000 -0.125000
v 0.125000 15.000000 -0.216506
v -0.000000 15.000000 -0.250000
v -0.125000 15.000000 -0.216506
v -0.216506 15.000000 -0.125000
v -0.250000 15.000000 0.000000
v -0.216506 15.000000 0.125000
v -0.125000 15.000000 0.216506
v 0.000000 15.000000 0.250000
v 0.125000 15.000000 0.216506
v 0.216506 15.000000 0.125000
v 0.250000 13.000000 0.000000
v 0.216506 13.000000 -0.125000
v 0.125000 13.000000 -0.216506
v -0.000000 13.000000 -0.250000
v -0.125000 13.000000 -0.216506
v -0.216506 13.000000 -0.125000
v -0.250000 13.000000 0.000000
v -0.216506 13.000000 0.125000
v -0.125000 13.000000 0.216506
v 0.000000 13.000000 0.250000
v 0.125000 13.000000 0.216506
v 0.216506 13.000000 0.125000
v 0.010000 21.000000 0.000000
v 0.008660 21.000000 -0.005000
v 0.005000 21.000000 -0.008660
v -0.000000 21.000000 -0.010000
v -0.005000 21.000000 -0.008660
v -0.008660 21.000000 -0.005000
v -0.010000 21.000000 0.000000
v -0.008660 21.000000 0.005000
v -0.005000 21.000000 0.008660
v 0.000000 21.000000 0.010000
v 0.005000 21.000000 0.008660
v 0.008660 21.000000 0.005000
v 0.500000 19.000000 0.000000
v 0.433013 19.000000 -0.250000
v 0.250000 19.000000 -0.433013
v -0.000000 19.000000 -0.500000
v -0.250000 19.000000 -0.433013
v -0.433013 19.000000 -0.250000
v -0.500000 19.000000 0.000000
v -0.433013 19.000000 0.250000
v -0.250000 19.000000 0.433013
v 0.000000 19.000000 0.500000
v 0.250000 19.000000 0.433013
v 0.433013 19.000000 0.250000
v 0.200000 20.000000 0.000000
v 0.173205 20.000000 -0.100000
v 0.100000 20.000000 -0.173205
v -0.000000 20.000000 -0.200000
v -0.100000 20.000000 -0.173205
v -0.173205 20.000000 -0.100000
v -0.200000 20.000000 0.000000
v -0.173205 20.000000 0.100000
v -0.100000 20.000000 0.173205
v 0.000000 20.000000 0.200000
v 0.100000 20.000000 0.173205
v 0.173205 20.000000 0.100000
v 0.200000 0.000000 0.000000
v 0.173205 0.000000 -0.100000
v 0.100000 0.000000 -0.173205
v -0.000000 0.000000 -0.200000
v -0.100000 0.000000 -0.173205
v -0.173205 0.000000 -0.100000
v -0.200000 0.000000 0.000000
v -0.173205 0.000000 0.100000
v -0.100000 0.000000 0.173205
v 0.000000 0.000000 0.200000
v 0.100000 0.000000 0.173205
v 0.173205 0.000000 0.100000
vt 0.576744 0.416908
vt 0.576744 0.022080
vt 0.601421 0.022080
vt 0.601421 0.416908
vt 0.185433 0.426960
vt 0.185433 0.022080
vt 0.203957 0.022080
vt 0.203957 0.426960
vt 0.229262 0.022080
vt 0.229262 0.426960
vt 0.254567 0.022080
vt 0.254567 0.426960
vt 0.273092 0.022080
vt 0.273092 0.426960
vt 0.739410 0.398863
vt 0.739410 0.022080
vt 0.762959 0.022080
vt 0.762959 0.398863
vt 0.786508 0.022080
vt 0.786508 0.398863
vt 0.670941 0.416908
vt 0.670941 0.022080
vt 0.689006 0.022080
vt 0.689006 0.416908
vt 0.713682 0.022080
vt 0.713682 0.416908
vt 0.738359 0.022080
vt 0.738359 0.416908
vt 0.534003 0.416908
vt 0.534003 0.022080
vt 0.552067 0.022080
vt 0.552067 0.416908
vt 0.508275 0.416908
vt 0.508275 0.022080
vt 0.532952 0.022080
vt 0.532952 0.416908
vt 0.602472 0.416908
vt 0.602472 0.022080
vt 0.620537 0.022080
vt 0.620537 0.416908
vt 0.645213 0.022080
vt 0.645213 0.416908
vt 0.669890 0.022080
vt 0.669890 0.416908
vt 0.092066 0.426960
vt 0.092066 0.022080
vt 0.110590 0.022080
vt 0.110590 0.426960
vt 0.135895 0.022080
vt 0.135895 0.426960
vt 0.161200 0.022080
vt 0.161200 0.426960
vt 0.179725 0.022080
vt 0.179725 0.426960
vt 0.789206 0.398863
vt 0.789206 0.022080
vt 0.812755 0.022080
vt 0.812755 0.398863
vt 0.836304 0.022080
vt 0.836304 0.398863
vt 0.465534 0.416908
vt 0.465534 0.022080
vt 0.483598 0.022080
vt 0.483598 0.416908
vt 0.282255 0.022994
vt 0.282503 0.023920
vt 0.282255 0.024846
vt 0.281577 0.025523
vt 0.280651 0.025771
vt 0.279725 0.025523
vt 0.279048 0.024846
vt 0.278800 0.023920
vt 0.279048 0.022994
vt 0.279725 0.022316
vt 0.280651 0.022068
vt 0.281577 0.022316
vt 0.463953 0.114648
vt 0.451551 0.160936
vt 0.417665 0.194822
vt 0.371377 0.207225
vt 0.325088 0.194822
vt 0.291203 0.160936
vt 0.278800 0.114648
vt 0.291203 0.068359
vt 0.325088 0.034474
vt 0.371377 0.022071
vt 0.417665 0.034474
vt 0.451551 0.068359
vt 0.895559 0.946408
vt 0.895559 0.475901
vt 0.954373 0.475901
vt 0.896736 0.946408
vt 0.384283 0.981494
vt 0.323274 0.475901
vt 0.385209 0.981494
vt 0.386473 0.475901
vt 0.386473 0.981494
vt 0.449672 0.475901
vt 0.387736 0.981494
vt 0.495937 0.475901
vt 0.388662 0.981494
vt 0.728455 0.968942
vt 0.668058 0.475901
vt 0.729688 0.475901
vt 0.729688 0.968942
vt 0.791318 0.475901
vt 0.730921 0.968942
vt 0.836434 0.475901
vt 0.731823 0.968942
vt 0.559767 0.968942
vt 0.499370 0.475901
vt 0.561000 0.475901
vt 0.561000 0.968942
vt 0.622630 0.475901
vt 0.562233 0.968942
vt 0.667747 0.475901
vt 0.563135 0.968942
vt 0.894383 0.946408
vt 0.836746 0.475901
vt 0.908102 0.040589
vt 0.913063 0.059105
vt 0.908102 0.077620
vt 0.894548 0.091174
vt 0.876032 0.096135
vt 0.857517 0.091174
vt 0.843963 0.077620
vt 0.839002 0.059105
vt 0.843963 0.040589
vt 0.857517 0.027035
vt 0.876032 0.022074
vt 0.894548 0.027035
vt 0.987757 0.059105
vt 0.982796 0.077620
vt 0.969241 0.091174
vt 0.950726 0.096135
vt 0.932211 0.091174
vt 0.918656 0.077620
vt 0.913695 0.059105
vt 0.918656 0.040589
vt 0.932211 0.027035
vt 0.950726 0.022074
vt 0.969241 0.027035
vt 0.982796 0.040589
vt 0.037160 0.975173
vt 0.037160 0.000003
vt 0.042036 0.000003
vt 0.042036 0.975173
vt 0.045606 0.000003
vt 0.045606 0.975173
vt 0.046121 0.930606
vt 0.046121 0.000003
vt 0.050774 0.000003
vt 0.050774 0.930606
vt 0.055427 0.000003
vt 0.055427 0.930606
vt 0.018448 0.975173
vt 0.018448 0.000003
vt 0.022018 0.000003
vt 0.022018 0.975173
vt 0.026894 0.000003
vt 0.026894 0.975173
vt 0.031769 0.000003
vt 0.031769 0.975173
vt 0.000000 1.000000
vt 0.000000 0.000003
vt 0.003660 0.000003
vt 0.003660 1.000000
vt 0.008660 0.000003
vt 0.008660 1.000000
vt 0.013660 0.000003
vt 0.013660 1.000000
vt 0.017320 0.000003
vt 0.017320 1.000000
vt 0.032285 0.975173
vt 0.032285 0.000003
vt 0.277008 0.475901
vn 0.965926 0.000000 -0.258819
vn 0.965926 0.000000 -0.258819
vn 0.965926 0.000000 -0.258819
vn 0.965926 0.000000 -0.258819
vn 0.707107 0.000000 -0.707107
vn 0.707107 0.000000 -0.707107
vn 0.707107 0.000000 -0.707107
vn 0.707107 0.000000 -0.707107
vn 0.258819 0.000000 -0.965926
vn 0.258819 0.000000 -0.965926
vn 0.258819 0.000000 -0.965926
vn 0.258819 0.000000 -0.965926
vn -0.258819 0.000000 -0.965926
vn -0.258819 0.000000 -0.965926
vn -0.258819 0.000000 -0.965926
vn -0.258819 0.000000 -0.965926
vn -0.707107 0.000000 -0.707107
vn -0.707107 0.000000 -0.707107
vn -0.707107 0.000000 -0.707107
vn -0.707107 0.000000 -0.707107
vn -0.965926 0.000000 -0.258819
vn -0.965926 0.000000 -0.258819
vn -0.965926 0.000000 -0.258819
vn -0.965926 0.000000 -0.258819
vn -0.965926 0.000000 0.258819
vn -0.965926 0.000000 0.258819
vn -0.965926 0.000000 0.258819
vn -0.965926 0.000000 0.258819
vn -0.707107 0.000000 0.707107
vn -0.707107 0.000000 0.707107
vn -0.707107 0.000000 0.707107
vn -0.707107 0.000000 0.707107
vn -0.258819 0.000000 0.965926
vn -0.258819 0.000000 0.965926
vn -0.258819 0.000000 0.965926
vn -0.258819 0.000000 0.965926
vn 0.258819 0.000000 0.965926
vn 0.258819 0.000000 0.965926
vn 0.258819 0.000000 0.965926
vn 0.258819 0.000000 0.965926
vn 0.707107 0.000000 0.707107
vn 0.707107 0.000000 0.707107
vn 0.707107 0.000000 0.707107
vn 0.707107 0.000000 0.707107
vn 0.965926 0.000000 0.258819
vn 0.965926 0.000000 0.258819
vn 0.965926 0.000000 0.258819
vn 0.965926 0.000000 0.258819
vn 0.965926 0.000000 -0.258819
vn 0.965926 0.000000 -0.258819
vn 0.965926 0.000000 -0.258819
vn 0.965926 0.000000 -0.258819
vn 0.707107 0.000000 -0.707107
vn 0.707107 0.000000 -0.707107
vn 0.707107 0.000000 -0.707107
vn 0.707107 0.000000 -0.707107
vn 0.258819 0.000000 -0.965926
vn 0.258819 0.000000 -0.965926
vn 0.258819 0.000000 -0.965926
vn 0.258819 0.000000 -0.965926
vn -0.258819 0.000000 -0.965926
vn -0.258819 0.000000 -0.965926
vn -0.258819 0.000000 -0.965926
vn -0.258819 0.000000 -0.965926
vn -0.707107 0.000000 -0.707107
vn -0.707107 0.000000 -0.707107
vn -0.707107 0.000000 -0.707107
vn -0.707107 0.000000 -0.707107
vn -0.965926 0.000000 -0.258819
vn -0.965926 0.000000 -0.258819
vn -0.965926 0.000000 -0.258819
vn -0.965926 0.000000 -0.258819
vn -0.965926 0.000000 0.258819
vn -0.965926 0.000000 0.258819
vn -0.965926 0.000000 0.258819
vn -0.965926 0.000000 0.258819
vn -0.707107 0.000000 0.707107
vn -0.707107 0.000000 0.707107
vn -0.707107 0.000000 0.707107
vn -0.707107 0.000000 0.707107
vn -0.258819 0.000000 0.965926
vn -0.258819 0.000000 0.965926
vn -0.258819 0.000000 0.965926
vn -0.258819 0.000000 0.965926
vn 0.258819 0.000000 0.965926
vn 0.258819 0.000000 0.965926
vn 0.258819 0.000000 0.965926
vn 0.258819 0.000000 0.965926
vn 0.707107 0.000000 0.707107
vn 0.707107 0.000000 0.707107
vn 0.707107 0.000000 0.707107
vn 0.707107 0.000000 0.707107
vn 0.965926 0.000000 0.258819
vn 0.965926 0.000000 0.258819
vn 0.965926 0.000000 0.258819
vn 0.965926 0.000000 0.258819
vn 0.000000 1.000000 0.000025
vn 0.000000 1.000000 0.000025
vn 0.000000 1.000000 0.000025
vn 0.000000 1.000000 0.000025
vn 0.000000 1.000000 0.000025
vn 0.000000 1.000000 0.000025
vn 0.000000 1.000000 0.000025
vn 0.000000 1.000000 0.000025
vn 0.000000 1.000000 0.000025
vn 0.000000 1.000000 0.000025
vn 0.000000 1.000000 0.000025
vn 0.000000 1.000000 0.000025
vn 0.000000 -1.000000 0.000001
vn 0.000000 -1.000000 0.000001
vn 0.000000 -1.000000 0.000001
vn 0.000000 -1.000000 0.000001
vn 0.000000 -1.000000 0.000001
vn 0.000000 -1.000000 0.000001
vn 0.000000 -1.000000 0.000001
vn 0.000000 -1.000000 0.000001
vn 0.000000 -1.000000 0.000001
vn 0.000000 -1.000000 0.000001
vn 0.000000 -1.000000 0.000001
vn 0.000000 -1.000000 0.000001
vn 0.939963 0.230291 -0.251863
vn 0.939963 0.230291 -0.251863
vn 0.939963 0.230291 -0.251863
vn 0.939963 0.230291 -0.251863
vn 0.688100 0.230291 -0.688102
vn 0.688101 0.230291 -0.688102
vn 0.688101 0.230291 -0.688102
vn 0.688100 0.230291 -0.688102
vn 0.251862 0.230291 -0.939964
vn 0.251862 0.230291 -0.939964
vn 0.251862 0.230291 -0.939964
vn 0.251862 0.230291 -0.939964
vn -0.251862 0.230291 -0.939964
vn -0.251862 0.230291 -0.939964
vn -0.251862 0.230291 -0.939964
vn -0.251862 0.230291 -0.939964
vn -0.688100 0.230291 -0.688102
vn -0.688100 0.230291 -0.688102
vn -0.688100 0.230291 -0.688102
vn -0.688100 0.230291 -0.688102
vn -0.939963 0.230291 -0.251863
vn -0.939963 0.230291 -0.251863
vn -0.939963 0.230291 -0.251863
vn -0.939963 0.230291 -0.251863
vn -0.939962 0.230291 0.251867
vn -0.939962 0.230291 0.251867
vn -0.939962 0.230291 0.251867
vn -0.939962 0.230291 0.251867
vn -0.688101 0.230291 0.688101
vn -0.688101 0.230291 0.688101
vn -0.688101 0.230291 0.688101
vn -0.688101 0.230291 0.688101
vn -0.251862 0.230291 0.939964
vn -0.251862 0.230291 0.939964
vn -0.251862 0.230291 0.939964
vn -0.251862 0.230291 0.939964
vn 0.251862 0.230291 0.939964
vn 0.251862 0.230291 0.939964
vn 0.251862 0.230291 0.939964
vn 0.251862 0.230291 0.939964
vn 0.688101 0.230291 0.688102
vn 0.688101 0.230291 0.688102
vn 0.688101 0.230291 0.688102
vn 0.688101 0.230291 0.688102
vn 0.939963 0.230291 0.251863
vn 0.939963 0.230291 0.251863
vn 0.939963 0.230291 0.251863
vn 0.939963 0.230291 0.251863
vn 0.000000 1.000000 0.000004
vn 0.000000 1.000000 0.000004
vn 0.000000 1.000000 0.000004
vn 0.000000 1.000000 0.000004
vn 0.000000 1.000000 0.000004
vn 0.000000 1.000000 0.000004
vn 0.000000 1.000000 0.000004
vn 0.000000 1.000000 0.000004
vn 0.000000 1.000000 0.000004
vn 0.000000 1.000000 0.000004
vn 0.000000 1.000000 0.000004
vn 0.000000 1.000000 0.000004
vn 0.000000 -1.000000 0.000000
vn 0.000000 -1.000000 0.000000
vn 0.000000 -1.000000 0.000000
vn 0.000000 -1.000000 0.000000
vn 0.000000 -1.000000 0.000000
vn 0.000000 -1.000000 0.000000
vn 0.000000 -1.000000 0.000000
vn 0.000000 -1.000000 0.000000
vn 0.000000 -1.000000 0.000000
vn 0.000000 -1.000000 0.000000
vn 0.000000 -1.000000 0.000000
vn 0.000000 -1.000000 0.000000
vn 0.965926 0.000000 -0.258819
vn 0.965926 0.000000 -0.258819
vn 0.965926 0.000000 -0.258819
vn 0.965926 0.000000 -0.258819
vn 0.707107 0.000000 -0.707107
vn 0.707107 0.000000 -0.707107
vn 0.707107 0.000000 -0.707107
vn 0.707107 0.000000 -0.707107
vn 0.258819 0.000000 -0.965926
vn 0.258819 0.000000 -0.965926
vn 0.258819 0.000000 -0.965926
vn 0.258819 0.000000 -0.965926
vn -0.258819 0.000000 -0.965926
vn -0.258819 0.000000 -0.965926
vn -0.258819 0.000000 -0.965926
vn -0.258819 0.000000 -0.965926
vn -0.707107 0.000000 -0.707107
vn -0.707107 0.000000 -0.707107
vn -0.707107 0.000000 -0.707107
vn -0.707107 0.000000 -0.707107
vn -0.965926 0.000000 -0.258819
vn -0.965926 0.000000 -0.258819
vn -0.965926 0.000000 -0.258819
vn -0.965926 0.000000 -0.258819
vn -0.965926 0.000000 0.258819
vn -0.965926 0.000000 0.258819
vn -0.965926 0.000000 0.258819
vn -0.965926 0.000000 0.258819
vn -0.707107 0.000000 0.707107
vn -0.707107 0.000000 0.707107
vn -0.707107 0.000000 0.707107
vn -0.707107 0.000000 0.707107
vn -0.258819 0.000000 0.965926
vn -0.258819 0.000000 0.965926
vn -0.258819 0.000000 0.965926
vn -0.258819 0.000000 0.965926
vn 0.258819 0.000000 0.965926
vn 0.258819 0.000000 0.965926
vn 0.258819 0.000000 0.965926
vn 0.258819 0.000000 0.965926
vn 0.707107 0.000000 0.707107
vn 0.707107 0.000000 0.707107
vn 0.707107 0.000000 0.707107
vn 0.707107 0.000000 0.707107
vn 0.965926 0.000000 0.258819
vn 0.965926 0.000000 0.258819
vn 0.965926 0.000000 0.258819
vn 0.965926 0.000000 0.258819
s off
g spear_uv:Mesh
usemtl set1
f 1/1/1 13/2/2 14/3/3 2/4/4
f 2/5/5 14/6/6 15/7/7 3/8/8
f 3/8/9 15/7/10 16/9/11 4/10/12
f 4/10/13 16/9/14 17/11/15 5/12/16
f 5/12/17 17/11/18 18/13/19 6/14/20
f 6/15/21 18/16/22 19/17/23 7/18/24
f 7/18/25 19/17/26 20/19/27 8/20/28
f 8/21/29 20/22/30 21/23/31 9/24/32
f 9/24/33 21/23/34 22/25/35 10/26/36
f 10/26/37 22/25/38 23/27/39 11/28/40
f 11/29/41 23/30/42 24/31/43 12/32/44
f 12/32/45 24/31/46 13/2/47 1/1/48
f 25/33/49 37/34/50 38/35/51 26/36/52
f 26/37/53 38/38/54 39/39/55 27/40/56
f 27/40/57 39/39/58 40/41/59 28/42/60
f 28/42/61 40/41/62 41/43/63 29/44/64
f 29/45/65 41/46/66 42/47/67 30/48/68
f 30/48/69 42/47/70 43/49/71 31/50/72
f 31/50/73 43/49/74 44/51/75 32/52/76
f 32/52/77 44/51/78 45/53/79 33/54/80
f 33/55/81 45/56/82 46/57/83 34/58/84
f 34/58/85 46/57/86 47/59/87 35/60/88
f 35/61/89 47/62/90 48/63/91 36/64/92
f 36/64/93 48/63/94 37/34/95 25/33/96
f 60/65/97 49/66/98 50/67/99 51/68/100 52/69/101 53/70/102 54/71/103 55/72/104 56/73/105 57/74/106 58/75/107 59/76/108
f 61/77/109 72/78/110 71/79/111 70/80/112 69/81/113 68/82/114 67/83/115 66/84/116 65/85/117 64/86/118 63/87/119 62/88/120
f 49/89/121 61/90/122 62/91/123 50/92/124
f 50/93/125 62/176/126 63/94/127 51/95/128
f 51/95/129 63/94/130 64/96/131 52/97/132
f 52/97/133 64/96/134 65/98/135 53/99/136
f 53/99/137 65/98/138 66/100/139 54/101/140
f 54/102/141 66/103/142 67/104/143 55/105/144
f 55/105/145 67/104/146 68/106/147 56/107/148
f 56/107/149 68/106/150 69/108/151 57/109/152
f 57/110/153 69/111/154 70/112/155 58/113/156
f 58/113/157 70/112/158 71/114/159 59/115/160
f 59/115/161 71/114/162 72/116/163 60/117/164
f 60/118/165 72/119/166 61/90/167 49/89/168
f 84/120/169 73/121/170 74/122/171 75/123/172 76/124/173 77/125/174 78/126/175 79/127/176 80/128/177 81/129/178 82/130/179 83/131/180
f 85/132/181 96/133/182 95/134/183 94/135/184 93/136/185 92/137/186 91/138/187 90/139/188 89/140/189 88/141/190 87/142/191 86/143/192
f 73/144/193 85/145/194 86/146/195 74/147/196
f 74/147/197 86/146/198 87/148/199 75/149/200
f 75/150/201 87/151/202 88/152/203 76/153/204
f 76/153/205 88/152/206 89/154/207 77/155/208
f 77/156/209 89/157/210 90/158/211 78/159/212
f 78/159/213 90/158/214 91/160/215 79/161/216
f 79/161/217 91/160/218 92/162/219 80/163/220
f 80/164/221 92/165/222 93/166/223 81/167/224
f 81/167/225 93/166/226 94/168/227 82/169/228
f 82/169/229 94/168/230 95/170/231 83/171/232
f 83/171/233 95/170/234 96/172/235 84/173/236
f 84/174/237 96/175/238 85/145/239 73/144/240
